<?xml version="1.0" encoding="utf-8"?>
<svg xmlns="http://www.w3.org/2000/svg" viewBox="0 0 21 28.02">
  <g>
    <path d="M20.2263 14.1201C19.3918 15.4755 17.9605 16.3963 16.3137 16.4992C16.4353 16.8938 16.5016 17.3113 16.5016 17.7459V21.8522C16.5016 22.7043 15.8274 23.3906 15.0039 23.3906H4.49842V16.3105C2.06132 15.67 0.221053 13.4853 0.0221053 10.8317C0.0110526 10.9118 0 10.9861 0 11.0719V26.0727C0.0552632 27.125 0.873158 27.9657 1.89553 28.0172H2.00053H14.9984H15.1532C18.3971 27.9314 21 25.2035 21 21.8522V17.7459C21 16.4477 20.7182 15.2239 20.2263 14.1201Z" fill="#003594"/>
    <path d="M14.9984 2.43336e-05H0V7.86359C0.0165789 8.51555 0.138158 9.14463 0.337105 9.72797C0.353684 9.77372 0.370263 9.81947 0.386842 9.86522C1.06658 11.7296 2.59737 13.1593 4.49842 13.6626C4.92947 13.777 5.37711 13.8513 5.84132 13.8628H5.99605H13.7992H16.2529C17.43 13.7941 18.4966 13.3138 19.32 12.5531C19.3476 12.5245 19.3808 12.4959 19.4084 12.4731C20.3258 11.5923 20.9226 10.3628 20.9889 8.99022V8.77862L20.9945 8.72143V6.15362C20.9945 2.75084 18.3087 -0.0114136 14.9929 -0.0114136L14.9984 2.43336e-05ZM16.5016 8.73287C16.5016 9.01882 16.275 9.24757 16.0042 9.24757H6.00158C5.71421 9.24757 5.45447 9.16179 5.2279 9.01882C5.13395 8.96163 5.04553 8.893 4.96816 8.81865C4.68632 8.53842 4.50395 8.14382 4.50395 7.70917V4.62666H15.0039C15.8329 4.62666 16.5016 5.31865 16.5016 6.16506V8.73287Z" fill="#FE6B00"/>
  </g>
</svg>
